<?xml version="1.0" standalone="no"?>
<!DOCTYPE svg PUBLIC "-//W3C//DTD SVG 20010904//EN"
 "http://www.w3.org/TR/2001/REC-SVG-20010904/DTD/svg10.dtd">
<svg version="1.0" xmlns="http://www.w3.org/2000/svg"
 width="500.000000pt" height="500.000000pt" viewBox="0 0 500.000000 500.000000"
 preserveAspectRatio="xMidYMid meet">
<metadata>
Created by potrace 1.14, written by Peter Selinger 2001-2017
</metadata>
<g transform="translate(0.000000,500.000000) scale(0.100000,-0.100000)"
fill="#000000" stroke="none">
<path d="M0 2500 l0 -2500 2500 0 2500 0 0 2500 0 2500 -2500 0 -2500 0 0
-2500z m3490 -274 c0 -25 5 -48 10 -51 14 -9 13 -58 -2 -73 -21 -21 -57 -14
-70 13 -13 30 3 75 27 75 11 0 15 11 15 40 0 22 5 40 10 40 6 0 10 -20 10 -44z
m-216 -2 c9 -8 16 -19 16 -24 0 -5 5 -21 11 -37 10 -26 12 -27 19 -8 5 11 6
30 3 43 -10 41 25 26 38 -18 7 -22 16 -40 20 -40 10 0 22 77 14 90 -3 5 1 10
9 10 20 0 20 -5 -4 -84 -23 -73 -44 -86 -56 -33 l-7 32 -14 -32 c-17 -43 -37
-42 -62 4 -13 26 -14 36 -2 28 6 -3 6 7 0 27 -5 18 -9 34 -9 35 0 2 -7 3 -15
3 -8 0 -15 -3 -15 -6 0 -3 7 -12 15 -20 22 -22 19 -37 -4 -24 -31 16 -33 28
-11 50 24 24 34 25 54 4z m366 -59 c0 -58 -3 -75 -14 -75 -11 0 -15 18 -18 75
-3 66 -1 75 15 75 15 0 17 -10 17 -75z m95 48 c5 -13 13 -23 16 -23 8 0 -5
-72 -15 -88 -10 -17 -51 -15 -65 2 -19 23 -9 70 17 81 12 5 22 16 22 23 0 7
-10 17 -22 22 -21 9 -20 9 7 7 20 -1 33 -9 40 -24z m-135 -33 c0 -4 -9 -10
-20 -13 -15 -4 -20 -14 -20 -41 0 -24 -5 -36 -14 -36 -10 0 -15 15 -18 49 l-3
50 38 -1 c20 0 37 -4 37 -8z m-470 -208 c8 -8 -4 -4 -28 9 -24 13 -49 30 -55
38 -14 18 61 -25 83 -47z m799 25 c-19 -15 -83 -47 -92 -47 -7 0 10 14 38 30
27 16 51 27 54 24 2 -2 2 -5 0 -7z m-343 -38 c4 -8 0 -9 -15 -4 -17 5 -21 2
-21 -14 0 -12 6 -21 13 -22 10 0 10 -2 0 -6 -7 -2 -13 -21 -13 -41 0 -20 -3
-47 -7 -60 -7 -28 -51 -48 -67 -32 -8 8 -6 9 6 5 23 -9 38 23 38 79 0 30 -4
46 -12 47 -10 0 -10 2 0 6 6 2 12 13 12 22 0 10 3 21 7 24 10 11 51 8 59 -4z
m-108 -51 c7 -7 12 -24 12 -38 0 -52 -61 -71 -82 -25 -23 51 32 101 70 63z
m-408 -158 c0 -5 -22 -10 -50 -10 -27 0 -50 5 -50 10 0 6 23 10 50 10 28 0 50
-4 50 -10z m925 0 c-3 -5 -28 -10 -56 -10 -27 0 -49 5 -49 10 0 6 25 10 56 10
34 0 53 -4 49 -10z m-699 -74 c10 -8 15 -18 11 -23 -5 -4 -14 0 -22 10 -10 15
-14 15 -24 3 -18 -22 -24 -78 -12 -110 9 -23 16 -27 36 -24 13 3 22 1 19 -3
-9 -15 -56 -10 -76 8 -28 25 -25 97 7 128 28 29 34 30 61 11z m244 -61 c0 -58
-3 -75 -14 -75 -11 0 -15 18 -18 75 -3 66 -1 75 15 75 15 0 17 -10 17 -75z
m-150 16 c0 -21 -13 -41 -26 -41 -20 0 -17 -27 4 -39 14 -9 13 -10 -11 -11
-39 0 -57 39 -33 75 16 24 66 36 66 16z m60 -33 c17 -38 20 -40 21 -18 1 14 2
33 1 43 -1 9 3 17 8 17 16 0 11 -48 -9 -88 -22 -43 -67 -70 -85 -51 -8 9 -7
11 6 6 9 -3 24 0 34 7 17 13 17 16 -4 70 -18 47 -19 56 -6 56 8 0 24 -19 34
-42z m192 17 c16 -35 -3 -75 -35 -75 -30 0 -47 18 -47 50 0 52 61 71 82 25z
m106 -9 c5 -37 -5 -73 -20 -79 -10 -3 -12 8 -10 44 3 31 0 49 -7 49 -6 0 -11
-18 -11 -40 0 -28 -4 -40 -14 -40 -10 0 -15 15 -18 49 l-3 49 40 -1 c36 -2 40
-5 43 -31z m-623 -55 c-7 -13 -95 -61 -95 -53 0 6 88 61 98 62 2 0 1 -4 -3 -9z
m753 -41 c26 -16 43 -30 38 -30 -11 0 -96 49 -96 55 0 9 11 5 58 -25z m-422
-102 c5 -7 0 -9 -14 -6 -20 6 -21 2 -24 -61 -2 -51 -6 -66 -18 -66 -11 0 -16
15 -18 63 -2 52 -6 63 -19 60 -9 -2 -18 -9 -21 -17 -3 -8 0 -11 7 -7 6 4 11 1
11 -8 0 -9 -7 -16 -15 -16 -18 0 -20 34 -2 48 26 21 102 28 113 10z m-215 -54
c-17 -27 -31 -43 -31 -36 0 16 50 95 56 89 3 -3 -8 -27 -25 -53z m473 -6 c16
-27 24 -48 19 -48 -9 0 -53 79 -53 94 0 12 2 9 34 -46z m-189 3 c0 -8 -6 -16
-12 -18 -7 -3 -13 3 -13 12 0 9 -5 13 -10 10 -6 -4 -7 -12 -3 -18 4 -7 7 -21
8 -32 0 -13 6 -20 17 -19 10 1 15 -2 12 -7 -3 -5 -12 -9 -20 -9 -8 0 -14 -7
-14 -15 0 -8 -4 -15 -10 -15 -5 0 -10 9 -10 19 0 11 -4 23 -10 26 -16 10 -12
52 6 70 19 19 59 16 59 -4z m95 -33 l6 -46 -41 1 c-49 2 -59 27 -21 53 29 18
34 34 10 34 -8 0 -12 -4 -9 -10 3 -5 1 -10 -4 -10 -6 0 -11 4 -11 8 0 16 14
23 40 20 22 -3 26 -9 30 -50z"/>
<path d="M3455 2168 c-9 -22 -2 -63 10 -63 14 0 18 41 6 62 -9 17 -10 17 -16
1z"/>
<path d="M3695 2167 c-4 -8 -5 -26 -3 -39 4 -23 4 -23 18 5 10 21 11 30 2 39
-8 8 -13 7 -17 -5z"/>
<path d="M3437 1890 c-6 -24 2 -60 14 -60 5 0 9 18 9 40 0 42 -14 54 -23 20z"/>
<path d="M3350 1614 c0 -8 5 -12 10 -9 6 3 10 10 10 16 0 5 -4 9 -10 9 -5 0
-10 -7 -10 -16z"/>
<path d="M3595 1617 c-9 -22 -2 -62 10 -60 6 1 11 14 13 29 4 32 -14 56 -23
31z"/>
<path d="M3570 1299 c0 -11 5 -17 10 -14 6 3 10 13 10 21 0 8 -4 14 -10 14 -5
0 -10 -9 -10 -21z"/>
</g>
</svg>
